PathFileType	4	(X/Y/Z)	Run_500 02
DataRate	CameraRate	NumFrames	NumMarkers	Units	OrigDataRate	OrigDataStartFrame	OrigNumFrames
120	120	4	42	mm	120	28	128
Frame#	Time	LASI			RASI			LPSI			RPSI			RTH1			RTH2			RTH3			LTH1			LTH2			LTH3			RTB1			RTB2			RTB3			LTB1			LTB2			LTB3			RCAL			RTOE			RMT5			LCAL			LTOE			LMT5			LACR			RACR			CLAV			C7			RUA1			RUA2			RUA3			RLEL			RMEL			LUA1			LUA2			LUA3			LLEL			LMEL			RFAsuperior			RFAradius			RFAulna			LFAsuperior			LFAradius			LFAulna			
		X1	Y1	Z1	X2	Y2	Z2	X3	Y3	Z3	X4	Y4	Z4	X5	Y5	Z5	X6	Y6	Z6	X7	Y7	Z7	X8	Y8	Z8	X9	Y9	Z9	X10	Y10	Z10	X11	Y11	Z11	X12	Y12	Z12	X13	Y13	Z13	X14	Y14	Z14	X15	Y15	Z15	X16	Y16	Z16	X17	Y17	Z17	X18	Y18	Z18	X19	Y19	Z19	X20	Y20	Z20	X21	Y21	Z21	X22	Y22	Z22	X23	Y23	Z23	X24	Y24	Z24	X25	Y25	Z25	X26	Y26	Z26	X27	Y27	Z27	X28	Y28	Z28	X29	Y29	Z29	X30	Y30	Z30	X31	Y31	Z31	X32	Y32	Z32	X33	Y33	Z33	X34	Y34	Z34	X35	Y35	Z35	X36	Y36	Z36	X37	Y37	Z37	X38	Y38	Z38	X39	Y39	Z39	X40	Y40	Z40	X41	Y41	Z41	X42	Y42	Z42	

28	0.325	795.399894	1022.857717	-488.571714	777.091766	1005.922697	-256.723111	630.422319	1054.049763	-442.207244	624.168153	1054.213435	-351.540956	640.611804	840.804565	-224.420495	629.413944	709.269598	-242.187614	489.411203	647.821872	-258.321284	818.5924240000001	910.164283	-540.607059	924.70521	860.366133	-514.297914	955.55124	714.33962	-515.93913	415.685233	442.641957	-308.053687	334.943756	426.072892	-262.838474	282.063383	318.541444	-328.683425	1008.391142	509.382904	-441.035189	923.863294	437.85539	-503.930589	888.2905960000001	356.894731	-436.243071	126.460875	319.436974	-358.332071	212.231103	117.241121	-359.556807	151.942768	126.723572	-285.896054	729.431143	289.99129	-456.952737	930.056914	211.333054	-421.583261	907.634502	192.792494	-511.756053	737.981671	1493.347338	-549.856087	822.705322	1464.383318	-199.671772	874.374283	1433.328021	-380.32077	743.890893	1516.812055	-364.582915	835.825119	1350.200763	-143.800214	866.815172	1287.149052	-156.680325	791.5125420000001	1254.348857	-83.82866300000001	842.429179	1184.525737	-73.388946	776.000007	1141.284623	-122.034449	676.6703670000001	1471.283029	-598.759415	600.412158	1437.32252	-576.9514390000001	616.41084	1414.101317	-651.500646	534.10936	1351.333297	-704.621866	494.352418	1313.439643	-636.087072	903.762252	1213.852586	-125.354591	972.028088	1268.347099	-266.229565	994.782143	1205.712419	-258.010923	590.790562	1313.930645	-720.01755	721.110379	1191.334154	-684.65525	673.887692	1164.39937	-721.943935	
29	0.333333	796.1551490000001	1024.713144	-488.170542	779.766467	1009.160345	-256.737937	632.418602	1057.565346	-440.203626	626.614145	1058.501593	-349.833002	640.78435	845.190997	-222.266361	628.532989	712.742426	-237.699213	489.568941	651.8428270000001	-256.278035	816.966914	910.882922	-541.657511	922.223976	861.2592069999999	-517.989719	952.181019	713.094168	-514.302648	404.79647	449.414037	-306.973072	323.386954	438.154869	-262.144434	262.103454	336.527896	-329.036291	1019.472909	506.309829	-441.054903	943.098168	425.40829	-502.519543	916.091063	342.245532	-433.376101	107.484904	349.72458	-357.950672	177.883136	141.493196	-360.929909	118.541396	154.576694	-286.487386	764.955098	257.432065	-452.876138	973.1354229999999	202.734166	-416.593966	952.963514	179.749736	-507.139764	735.659034	1494.359646	-550.260043	825.2752850000001	1467.557468	-201.762692	874.411118	1435.733109	-383.315637	743.535434	1518.192139	-364.646648	839.563987	1354.412487	-144.696016	871.446071	1291.861216	-156.195083	796.096262	1259.082524	-83.307602	848.284417	1189.81702	-72.952077	780.932103	1145.337905	-119.060561	674.579171	1474.183541	-598.742494	598.527604	1441.237317	-577.569021	614.311535	1418.036498	-652.40097	531.487126	1356.514606	-706.146572	492.691268	1317.198851	-638.512602	907.5152419999999	1219.337354	-127.652564	967.541874	1274.004024	-271.521186	992.047074	1212.106573	-264.322422	588.586605	1321.188473	-723.327612	723.115588	1202.679949	-691.578085	676.296812	1173.124204	-727.18759	
30	0.341667	796.297913	1025.215465	-488.230915	782.17518	1011.769342	-256.700379	633.752008	1060.466911	-438.01014	628.733612	1062.056168	-348.039611	643.005587	847.303364	-220.471446	631.143195	713.703702	-235.053464	492.828234	652.763121	-254.107433	814.526271	909.2571390000001	-543.239158	918.8606	860.0061909999999	-522.426073	948.347665	710.2308870000001	-514.036859	395.57626	455.324557	-306.790729	313.684496	450.166786	-262.11462	243.549921	356.154757	-330.145076	1027.958961	501.756921	-441.399481	960.6628449999999	412.257964	-500.905772	941.763074	328.439632	-430.508772	89.019049	382.03677	-356.654072	144.721311	169.622089	-363.758817	88.688551	186.191326	-286.998681	800.074416	227.466568	-447.862019	1013.15124	195.898766	-412.942565	994.780165	169.296816	-503.491308	733.951609	1494.474405	-550.889153	827.754001	1470.045101	-203.621769	875.158588	1437.124956	-385.985787	743.419069	1519.006705	-365.296811	842.218219	1357.72609	-145.423909	875.0555450000001	1295.861697	-155.204158	798.994679	1263.123281	-82.90204799999999	852.333079	1194.232761	-72.379696	784.417507	1148.927183	-116.433995	673.312293	1475.868777	-599.1721250000001	597.440626	1443.736433	-578.53827	613.125251	1420.568736	-653.612711	530.005885	1360.149266	-707.938121	492.055502	1319.256234	-641.314517	909.810163	1223.327223	-129.654527	962.865145	1277.498412	-275.94681	988.46421	1216.209044	-270.528353	587.571355	1327.159849	-726.691234	726.337097	1213.359687	-698.3232850000001	680.262246	1181.012942	-732.756702	
31	0.35	795.842408	1024.564629	-488.659511	784.487193	1013.200414	-256.583463	634.498349	1062.477264	-435.707956	630.702149	1064.397846	-346.224616	647.2399820000001	846.655167	-219.535256	636.56328	712.209384	-234.92113	498.3065	651.176008	-252.170967	811.380301	905.876505	-544.916978	915.374607	856.3822740000001	-526.140373	943.985156	705.731585	-514.8715099999999	388.386477	461.026509	-307.052539	306.195836	462.568147	-262.441366	227.471294	377.302573	-331.183842	1033.750453	495.86575	-441.763768	975.9923669999999	398.779432	-499.231217	964.821097	315.373858	-427.934467	73.727655	416.476388	-354.144047	113.93407	201.225061	-367.083569	62.259341	220.451882	-287.510041	833.718659	200.583028	-442.316689	1049.347485	190.507229	-410.603208	1032.200234	160.859002	-500.706193	732.99164	1493.877331	-551.80782	830.03862	1471.908767	-205.392811	876.2139979999999	1437.571699	-388.386418	743.72806	1519.344425	-366.644184	843.8097299999999	1360.311048	-145.988633	877.588452	1299.141184	-153.838168	800.379187	1266.593186	-82.472015	854.50497	1197.704933	-71.74031600000001	786.067095	1152.235758	-114.216839	672.8814	1476.431562	-600.007084	597.235847	1444.64307	-579.991924	612.932606	1421.727416	-655.121359	529.794469	1362.217433	-709.954808	492.55079	1319.44468	-644.476597	910.669909	1225.806102	-131.263483	958.506169	1278.683005	-279.572992	984.4524699999999	1217.773758	-276.222226	587.851522	1331.794484	-730.036941	730.781527	1223.246903	-704.736179	685.806873	1188.06532	-738.472409	
